HIERARCHY
ROOT hip
{
	OFFSET 0.000000 0.000000 0.000000
	CHANNELS 6 Xposition Yposition Zposition Xrotation Zrotation Yrotation 
	JOINT abdomen
	{
		OFFSET 0.000000 3.422050 0.000000
		CHANNELS 3 Xrotation Zrotation Yrotation 
		JOINT chest
		{
			OFFSET 0.000000 8.486693 -0.684411
			CHANNELS 3 Xrotation Zrotation Yrotation 
			JOINT neck
			{
				OFFSET 0.000000 10.266162 -0.273764
				CHANNELS 3 Xrotation Zrotation Yrotation 
				JOINT head
				{
					OFFSET 0.000000 3.148285 0.000000
					CHANNELS 3 Xrotation Zrotation Yrotation 
					End Site
					{
						OFFSET 0.000000 3.148289 0.000000
					}
				}
			}
			JOINT lCollar
			{
				OFFSET 3.422053 6.707223 -0.821293
				CHANNELS 3 Yrotation Zrotation Xrotation 
				JOINT lShldr
				{
					OFFSET 3.285171 0.000000 0.000000
					CHANNELS 3 Zrotation Yrotation Xrotation 
					JOINT lForeArm
					{
						OFFSET 10.129278 0.000000 0.000000
						CHANNELS 3 Yrotation Zrotation Xrotation 
						JOINT lHand
						{
							OFFSET 8.486692 0.000000 0.000000
							CHANNELS 3 Zrotation Yrotation Xrotation 
							End Site
							{
								OFFSET 4.106464 0.000000 0.000000
							}
						}
					}
				}
			}
			JOINT rCollar
			{
				OFFSET -3.558935 6.707223 -0.821293
				CHANNELS 3 Yrotation Zrotation Xrotation 
				JOINT rShldr
				{
					OFFSET -3.148289 0.000000 0.000000
					CHANNELS 3 Zrotation Yrotation Xrotation 
					JOINT rForeArm
					{
						OFFSET -10.266159 0.000000 0.000000
						CHANNELS 3 Yrotation Zrotation Xrotation 
						JOINT rHand
						{
							OFFSET -8.349810 0.000000 0.000000
							CHANNELS 3 Zrotation Yrotation Xrotation 
							End Site
							{
								OFFSET -4.106464 0.000000 0.000000
							}
						}
					}
				}
			}
		}
	}
	JOINT lThigh
	{
		OFFSET 5.338403 -1.642589 1.368821
		CHANNELS 3 Xrotation Zrotation Yrotation 
		JOINT lShin
		{
			OFFSET -2.053232 -20.121670 0.000000
			CHANNELS 3 Xrotation Zrotation Yrotation 
			JOINT lFoot
			{
				OFFSET 0.000000 -19.300380 -1.231939
				CHANNELS 3 Xrotation Yrotation Zrotation 
				End Site
				{
					OFFSET 0.000000 -2.463878 4.653993
				}
			}
		}
	}
	JOINT rThigh
	{
		OFFSET -5.338403 -1.642589 1.368821
		CHANNELS 3 Xrotation Zrotation Yrotation 
		JOINT rShin
		{
			OFFSET 2.053232 -20.121670 0.000000
			CHANNELS 3 Xrotation Zrotation Yrotation 
			JOINT rFoot
			{
				OFFSET 0.000000 -19.300380 -1.231939
				CHANNELS 3 Xrotation Yrotation Zrotation 
				End Site
				{
					OFFSET 0.000000 -2.463878 4.653993
				}
			}
		}
	}
}
MOTION
Frames: 19
Frame Time: 0.033264
0.116543 42.791985 9.836944 31.801239 0.000000 -180.000000 10.427078 -1.574629 -0.928619 17.264496 -1.485811 -0.558144 3.477549 11.997512 -18.003248 -37.298046 9.132684 0.294403 -34.177055 -9.076844 -25.521387 -1.393405 -17.567152 -23.613575 -29.078854 -15.608936 -4.100663 -57.499130 3.080954 -9.251114 5.639667 10.787683 -8.027325 40.299652 17.705887 -5.720803 6.271851 33.995926 5.419184 44.314701 8.792994 -2.881342 -117.812675 66.669098 -5.347121 142.464661 -19.114733 -48.642380 35.263954 20.114996 10.068668 -150.725082 -8.575172 -1.061297 116.620369 -37.516262 -28.263840 -1.053738 25.204330 5.873846 
0.103928 42.887505 9.830636 31.601137 0.000000 -180.000000 10.427078 -1.574629 -0.928619 16.813587 -1.485775 -0.558074 4.631969 11.997512 -18.003260 -37.112118 9.088718 0.307773 -33.853725 -9.631384 -25.258566 -1.423326 -17.734455 -23.594654 -29.437719 -15.779006 -4.194698 -57.236225 3.272455 -9.154627 5.825890 11.558049 -7.719436 39.952168 17.546665 -5.816395 6.046461 33.150417 5.543970 44.767521 8.858027 -2.528606 -117.458778 66.769394 -5.071530 142.464661 -19.114733 -48.642380 34.994720 19.900288 10.284429 -150.822983 -8.657824 -1.011320 116.815102 -37.490772 -28.379230 -1.372957 25.220751 6.020172 
0.091312 42.983025 9.824328 31.401030 0.000000 -180.000000 10.427078 -1.574629 -0.928619 16.362711 -1.485739 -0.558004 5.787691 11.997514 -18.003275 -36.926128 9.044687 0.321003 -33.527321 -10.184371 -24.992165 -1.453331 -17.901747 -23.575628 -29.797155 -15.948494 -4.289913 -56.972961 3.463506 -9.057244 6.008365 12.329206 -7.413306 39.605259 17.386898 -5.910883 5.825429 32.304710 5.663614 45.220783 8.920299 -2.175332 -117.102226 66.869034 -4.793240 142.464661 -19.114733 -48.642380 34.726730 19.684641 10.498814 -150.920975 -8.740390 -0.961189 117.009682 -37.464954 -28.494461 -1.692254 25.236433 6.166611 
0.078696 43.078541 9.818021 31.200933 0.000000 -180.000000 10.427078 -1.574629 -0.928619 15.911868 -1.485701 -0.557935 6.944467 11.997515 -18.003286 -36.740093 9.000596 0.334094 -33.197796 -10.735733 -24.722145 -1.483424 -18.069023 -23.556482 -30.157167 -16.117395 -4.386307 -56.709332 3.654100 -8.958970 6.187099 13.101037 -7.108866 39.258965 17.226599 -6.004270 5.608562 31.458906 5.778302 45.674438 8.979797 -1.821557 -116.742958 66.967964 -4.512237 142.464661 -19.114733 -48.642380 34.459961 19.468067 10.711827 -151.019043 -8.822868 -0.910905 117.204132 -37.438847 -28.609545 -2.011623 25.251371 6.313158 
0.066081 43.174061 9.811713 31.000843 0.000000 -180.000000 10.427078 -1.574629 -0.928619 15.461088 -1.485664 -0.557866 8.102076 11.997515 -18.003300 -36.553986 8.956437 0.347044 -32.865093 -11.285397 -24.448465 -1.513604 -18.236294 -23.537243 -30.517750 -16.285696 -4.483879 -56.445335 3.844225 -8.859802 6.362108 13.873431 -6.806060 38.913261 17.065777 -6.096553 5.395678 30.613148 5.888206 46.128460 9.036517 -1.467320 -116.381042 67.066216 -4.228519 142.464661 -19.114733 -48.642380 34.194431 19.250582 10.923473 -151.117233 -8.905262 -0.860468 117.398438 -37.412415 -28.724470 -2.331055 25.265566 6.459802 
0.053465 43.269577 9.805405 30.800745 0.000000 -180.000000 10.427078 -1.574629 -0.928619 15.010376 -1.485625 -0.557797 9.260273 11.997517 -18.003311 -36.367825 8.912219 0.359854 -32.529182 -11.833295 -24.171093 -1.543872 -18.403543 -23.517878 -30.878906 -16.453382 -4.582627 -56.180977 4.033875 -8.759745 6.533401 14.646277 -6.504827 38.568172 16.904446 -6.187730 5.186600 29.767506 5.993490 46.582790 9.090449 -1.112662 -116.016418 67.163765 -3.942069 142.464661 -19.114733 -48.642380 33.930119 19.032188 11.133748 -151.215500 -8.987568 -0.809876 117.592606 -37.385674 -28.839237 -2.650542 25.279032 6.606542 
0.040850 43.365097 9.799097 30.600668 0.000000 -180.000000 10.427078 -1.574629 -0.928619 14.559746 -1.485587 -0.557729 10.418823 11.997518 -18.003325 -36.181618 8.867939 0.372523 -32.190006 -12.379361 -23.889980 -1.574228 -18.570787 -23.498411 -31.240620 -16.620445 -4.682546 -55.916237 4.223044 -8.658794 6.700986 15.419456 -6.205100 38.223679 16.742607 -6.277807 4.981165 28.922132 6.094309 47.037395 9.141586 -0.757621 -115.649078 67.260612 -3.652860 142.464661 -19.114733 -48.642380 33.667034 18.812918 11.342661 -151.313873 -9.069786 -0.759131 117.786652 -37.358635 -28.953856 -2.970077 25.291746 6.753366 
0.028234 43.460617 9.792789 30.400599 0.000000 -180.000000 10.427078 -1.574629 -0.928619 14.109216 -1.485548 -0.557661 11.577500 11.997522 -18.003340 -35.995346 8.823596 0.385050 -31.847523 -12.923513 -23.605093 -1.604674 -18.738014 -23.478823 -31.602903 -16.786877 -4.783638 -55.651131 4.411721 -8.556956 6.864871 16.192856 -5.906817 37.879799 16.580280 -6.366775 4.779217 28.077122 6.190812 47.492245 9.189928 -0.402239 -115.278954 67.356667 -3.360885 142.464661 -19.114733 -48.642380 33.405174 18.592768 11.550206 -151.412338 -9.151920 -0.708233 117.980522 -37.331280 -29.068298 -3.289650 25.303734 6.900270 
0.015619 43.556137 9.786482 30.200529 0.000000 -180.000000 10.427078 -1.574629 -0.928619 13.658794 -1.485508 -0.557593 12.736049 11.997522 -18.003351 -35.809021 8.779191 0.397435 -31.501694 -13.465690 -23.316395 -1.635209 -18.905222 -23.459127 -31.965746 -16.952660 -4.885898 -55.385681 4.599905 -8.454235 7.025060 16.966364 -5.609914 37.536522 16.417469 -6.454637 4.580606 27.232601 6.283144 47.947289 9.235466 -0.046556 -114.906128 67.452042 -3.066152 142.464661 -19.114733 -48.642380 33.144531 18.371761 11.756395 -151.510880 -9.233962 -0.657181 118.174278 -37.303623 -29.182598 -3.609255 25.314968 7.047243 
0.003003 43.651653 9.780174 30.000479 0.000000 -180.000000 10.427078 -1.574629 -0.928619 13.208503 -1.485468 -0.557526 13.894246 11.997524 -18.003363 -35.622639 8.734728 0.409679 -31.152479 -14.005817 -23.023846 -1.665833 -19.072411 -23.439314 -32.329136 -17.117783 -4.989323 -55.119823 4.787577 -8.350622 7.181558 17.739864 -5.314329 37.193855 16.254194 -6.541392 4.385186 26.388662 6.371430 48.402485 9.278195 0.309388 -114.530518 67.546661 -2.768607 142.464661 -19.114733 -48.642380 32.885109 18.149908 11.961227 -151.609528 -9.315917 -0.605975 118.367874 -37.275669 -29.296724 -3.928882 25.325459 7.194279 
-0.009612 43.747173 9.773867 29.800440 0.000000 -180.000000 10.427078 -1.574629 -0.928619 12.758350 -1.485427 -0.557459 15.051852 11.997527 -18.003374 -35.436207 8.690206 0.421780 -30.799824 -14.543820 -22.727404 -1.696549 -19.239586 -23.419390 -32.693085 -17.282242 -5.093911 -54.853626 4.974738 -8.246129 7.334371 18.513256 -5.019994 36.851803 16.090452 -6.627039 4.192822 25.545420 6.455801 48.857807 9.318116 0.665553 -114.152145 67.640511 -2.468278 142.464661 -19.114733 -48.642380 32.626892 17.927216 12.164701 -151.708267 -9.397783 -0.554615 118.561317 -37.247398 -29.410688 -4.248524 25.335213 7.341372 
-0.022228 43.842693 9.767558 29.600410 0.000000 -180.000000 10.427078 -1.574629 -0.928619 12.308349 -1.485386 -0.557393 16.208635 11.997532 -18.003389 -35.249725 8.645623 0.433738 -30.443680 -15.079632 -22.427029 -1.727357 -19.406744 -23.399355 -33.057579 -17.446020 -5.199659 -54.587051 5.161379 -8.140752 7.483496 19.286419 -4.726844 36.510365 15.926260 -6.711580 4.003380 24.702980 6.536377 49.313206 9.355224 1.021899 -113.771011 67.733620 -2.165139 142.464661 -19.114733 -48.642380 32.369884 17.703707 12.366821 -151.807114 -9.479557 -0.503102 118.754601 -37.218819 -29.524469 -4.568173 25.344217 7.488514 
-0.034843 43.938210 9.761250 29.400400 0.000000 -180.000000 10.427078 -1.574629 -0.928619 11.858516 -1.485344 -0.557326 17.364353 11.997535 -18.003405 -35.063194 8.600985 0.445553 -30.084017 -15.613182 -22.122690 -1.758257 -19.573887 -23.379206 -33.422626 -17.609108 -5.306565 -54.320110 5.347491 -8.034497 7.628935 20.059246 -4.434813 36.169529 15.761628 -6.795012 3.816743 23.861452 6.613272 49.768631 9.389518 1.378383 -113.387108 67.825958 -1.859179 142.464661 -19.114733 -48.642380 32.114082 17.479389 12.567595 -151.906052 -9.561244 -0.451435 118.947746 -37.189945 -29.638096 -4.887820 25.352488 7.635697 
-0.047459 44.033730 9.754943 29.200401 0.000000 -180.000000 10.427078 -1.574629 -0.928619 11.408861 -1.485302 -0.557260 18.518772 11.997537 -18.003414 -34.876614 8.556288 0.457225 -29.720783 -16.144398 -21.814344 -1.789249 -19.740999 -23.358929 -33.788219 -17.771496 -5.414626 -54.052788 5.533066 -7.927361 7.770689 20.831633 -4.143835 35.829330 15.596568 -6.877339 3.632784 23.020935 6.686594 50.224072 9.421000 1.734967 -113.000343 67.917465 -1.550395 142.464661 -19.114733 -48.642380 31.859480 17.254276 12.767020 -152.005081 -9.642837 -0.399615 119.140709 -37.160759 -29.751543 -5.207458 25.360010 7.782915 
-0.060074 44.129250 9.748635 29.000420 0.000000 -180.000000 10.427078 -1.574629 -0.928619 10.959400 -1.485259 -0.557195 19.671671 11.997543 -18.003429 -34.689976 8.511535 0.468754 -29.353928 -16.673199 -21.501942 -1.820336 -19.908096 -23.338543 -34.154343 -17.933172 -5.523837 -53.785107 5.718096 -7.819348 7.908751 21.603470 -3.853842 35.489735 15.431088 -6.958558 3.451394 22.181540 6.756446 50.679455 9.449666 2.091608 -112.610794 68.008202 -1.238763 142.464661 -19.114733 -48.642380 31.606083 17.028383 12.965104 -152.104202 -9.724340 -0.347640 119.333542 -37.131275 -29.864815 -5.527077 25.366783 7.930157 
-0.072690 44.224766 9.742328 28.800463 0.000000 -180.000000 10.427078 -1.574629 -0.928619 10.510147 -1.485216 -0.557129 20.822813 11.997548 -18.003443 -34.503292 8.466724 0.480139 -28.983410 -17.199520 -21.185452 -1.851516 -20.075178 -23.318048 -34.521000 -18.094126 -5.634194 -53.517052 5.902573 -7.710459 8.043117 22.374649 -3.564764 35.150757 15.265197 -7.038669 3.272463 21.343372 6.822930 51.134743 9.475518 2.448265 -112.218460 68.098145 -0.924293 142.464661 -19.114733 -48.642380 31.353874 16.801725 13.161850 -152.203415 -9.805750 -0.295513 119.526222 -37.101498 -29.977926 -5.846669 25.372808 8.077416 
-0.085305 44.320286 9.736020 28.600515 0.000000 -180.000000 10.427078 -1.574629 -0.928619 10.061117 -1.485172 -0.557065 21.971962 11.997548 -18.003448 -34.316555 8.421857 0.491379 -28.609198 -17.723291 -20.864840 -1.882791 -20.242228 -23.297428 -34.888195 -18.254349 -5.745696 -53.248615 6.086493 -7.600696 8.173780 23.145067 -3.276532 34.812397 15.098907 -7.117673 3.095882 20.506519 6.886135 51.589897 9.498555 2.804898 -111.823273 68.187263 -0.606969 142.464661 -19.114733 -48.642380 31.102848 16.574305 13.357256 -152.302750 -9.887068 -0.243231 119.718727 -37.071404 -30.090849 -6.166230 25.378105 8.224693 
-0.097921 44.415806 9.729712 28.400599 0.000000 -180.000000 10.427078 -1.574629 -0.928619 9.612324 -1.485128 -0.557000 23.118910 11.997555 -18.003462 -34.129772 8.376936 0.502475 -28.231230 -18.244432 -20.540060 -1.914162 -20.409258 -23.276690 -35.255917 -18.413822 -5.858337 -52.979836 6.269846 -7.490065 8.300730 23.914610 -2.989076 34.474655 14.932228 -7.195570 2.921557 19.671089 6.946154 52.044907 9.518788 3.161468 -111.425270 68.275558 -0.286786 142.464661 -19.114733 -48.642380 30.853014 16.346148 13.551335 -152.402145 -9.968295 -0.190797 119.911079 -37.041027 -30.203596 -6.485745 25.382650 8.371969 
-0.110536 44.511322 9.723404 28.200697 0.000000 -180.000000 10.427078 -1.574629 -0.928619 9.163776 -1.485083 -0.556936 24.263424 11.997561 -18.003477 -33.942944 8.331963 0.513425 -27.849472 -18.762880 -20.211077 -1.945630 -20.576265 -23.255836 -35.624153 -18.572542 -5.972113 -52.710678 6.452626 -7.378562 8.423958 24.683189 -2.702322 34.137539 14.765170 -7.272365 2.749388 18.837177 7.003068 52.499695 9.536211 3.517932 -111.024445 68.363007 0.036244 142.464661 -19.114733 -48.642380 30.604366 16.117262 13.744084 -152.501663 -10.049427 -0.138208 120.103233 -37.010338 -30.316151 -6.805215 25.386463 8.519249 
